<svg xmlns="http://www.w3.org/2000/svg" width="133.579" height="150" viewBox="0 0 133.579 150">
  <g id="Layer_2" data-name="Layer 2" transform="translate(0 0.013)">
    <g id="Layer_1" data-name="Layer 1" transform="translate(0 -0.013)">
      <path id="Path_13" data-name="Path 13" d="M89.8,15.038,97.148,2.555A1.692,1.692,0,1,0,94.234.835L86.783,13.464a45.465,45.465,0,0,0-39.977,0L39.394.835a1.7,1.7,0,0,0-2.914,1.72l7.383,12.474A45.66,45.66,0,0,0,21.139,52.256h91.368A45.66,45.66,0,0,0,89.8,15.038ZM43.892,37.013a4.741,4.741,0,1,1,4.741-4.741A4.741,4.741,0,0,1,43.892,37.013Zm43.008,0a4.741,4.741,0,1,1,3.359-1.385A4.741,4.741,0,0,1,86.9,37.013ZM11.405,57.55H6.081C2.72,57.55,0,60.863,0,64.943v42.522c0,4.08,2.72,7.393,6.081,7.393h5.324c3.361,0,6.091-3.313,6.091-7.393V64.943C17.487,60.863,14.767,57.55,11.405,57.55Zm116.092,0h-5.333c-3.352,0-6.081,3.313-6.081,7.393v42.522c0,4.08,2.73,7.393,6.081,7.393H127.5c3.352,0,6.081-3.313,6.081-7.393V64.943C133.579,60.863,130.849,57.55,127.5,57.55ZM21.071,117.627a7.4,7.4,0,0,0,7.4,7.4H37.5v17.564a7.335,7.335,0,0,0,7.276,7.393h6.363a7.344,7.344,0,0,0,7.276-7.393V125.029h17.9v17.564a7.344,7.344,0,0,0,7.276,7.393h6.363a7.344,7.344,0,0,0,7.276-7.393V125.029h7.956a7.4,7.4,0,0,0,7.393-7.4v-61H21.071Z" transform="translate(0 0.013)" fill="#5f5e63"/>
    </g>
  </g>
</svg>
