<svg xmlns="http://www.w3.org/2000/svg" width="122.249" height="150" viewBox="0 0 122.249 150">
  <g id="Layer_1" data-name="Layer 1" transform="translate(0 0)">
    <path id="Path_12" data-name="Path 12" d="M67.467,13.05A32.119,32.119,0,0,1,91.028,0s2.037,12.214-7.753,24.032C72.816,36.57,60.936,34.48,60.936,34.48S58.711,24.606,67.467,13.05ZM62.242,43.038c5.068,0,14.482-6.969,26.727-6.969,21.085,0,29.381,15,29.381,15a32.579,32.579,0,0,0-16.227,28.42c-.052,22.7,20.124,30.531,20.124,30.531s-14.126,39.757-33.206,39.757c-8.756,0-15.579-5.9-24.8-5.9-9.4,0-18.755,6.123-24.836,6.123C22.015,150,0,112.281,0,81.969,0,52.138,18.63,36.486,36.11,36.486c11.358,0,20.176,6.551,26.121,6.551Z" transform="translate(0 0)" fill="#fff"/>
  </g>
</svg>
