<svg xmlns="http://www.w3.org/2000/svg" viewBox="0 0 127.08 156.1"><defs><style>.cls-1{fill:#5f5e63;}</style></defs><title>Asset 13</title><g id="Layer_2" data-name="Layer 2"><g id="Слой_1" data-name="Слой 1"><polygon class="cls-1" points="29.85 13.39 97.24 13.39 97.24 66.65 110.63 66.65 110.63 0 16.47 0 16.47 51.67 29.85 51.67 29.85 13.39 29.85 13.39"/><polygon class="cls-1" points="119.7 74.09 119.7 140.58 115.83 140.58 115.83 73.34 68.82 73.34 60.58 58.36 0 58.36 0 140.58 0 156.1 115.83 156.1 119.7 156.1 127.08 156.1 127.08 140.58 127.08 74.09 119.7 74.09 119.7 74.09"/><polygon class="cls-1" points="89.89 22.54 36.93 22.54 36.93 33.33 89.89 33.33 89.89 22.54 89.89 22.54"/><polygon class="cls-1" points="90.02 41.4 37.06 41.4 37.06 52.19 90.02 52.19 90.02 41.4 90.02 41.4"/></g></g></svg>