<svg xmlns="http://www.w3.org/2000/svg" viewBox="0 0 132.15 205.56"><defs><style>.cls-1{fill:#5f5e63;}</style></defs><title>Asset 12</title><g id="Layer_2" data-name="Layer 2"><g id="Слой_1" data-name="Слой 1"><path class="cls-1" d="M119.06,144.19a21.42,21.42,0,0,1-21.34,21.4H34.45a21.45,21.45,0,0,1-21.39-21.4V38A21.46,21.46,0,0,1,34.45,16.58H97.72A21.43,21.43,0,0,1,119.06,38V144.19Zm-53,53.57a12.39,12.39,0,1,1,12.39-12.4,12.39,12.39,0,0,1-12.39,12.4ZM104.6,0H27.53A27.58,27.58,0,0,0,0,27.52V178a27.59,27.59,0,0,0,27.53,27.53H104.6A27.62,27.62,0,0,0,132.15,178V27.52A27.62,27.62,0,0,0,104.6,0Z"/><path class="cls-1" d="M71.18,106.65,86.69,84.54c2.76-3.94,1.08-7.15-3.72-7.15H76.56V56.9a6.82,6.82,0,0,0-6.81-6.81H62.59a6.82,6.82,0,0,0-6.8,6.81V77.39H49.38c-4.8,0-6.47,3.21-3.72,7.15l15.51,22.11c2.76,3.95,7.27,3.95,10,0Z"/><path class="cls-1" d="M102,131.54a4.15,4.15,0,0,0,4.16-4.15V109.83a4.16,4.16,0,0,0-4.16-4.16H98.64a4.17,4.17,0,0,0-4.16,4.16v5.57a4.19,4.19,0,0,1-4.17,4.17H42a4.18,4.18,0,0,1-4.16-4.17v-5.57a4.17,4.17,0,0,0-4.16-4.16H30.35a4.18,4.18,0,0,0-4.17,4.16v17.56a4.17,4.17,0,0,0,4.17,4.15Z"/></g></g></svg>