<svg xmlns="http://www.w3.org/2000/svg" viewBox="0 0 170.62 127.93"><defs><style>.cls-1{fill:#5f5e63;}.cls-2{fill:#fff;}</style></defs><title>Asset 19</title><g id="Layer_2" data-name="Layer 2"><g id="Слой_1" data-name="Слой 1"><path class="cls-1" d="M158.64,12.06H12.11V103.6H114.2c1.6,1.69,1.2,3.07.15,4.61a67.07,67.07,0,0,0-3.63,6,2.67,2.67,0,0,1-2.69,1.56q-44-.06-87.94,0H0V0H170.62V115.77c-1.77,0-3.59,0-5.39,0a1.79,1.79,0,0,1-1.11-.86c-1.61-2.59-3.22-5.19-4.68-7.86a2.88,2.88,0,0,1,0-2.25,23.79,23.79,0,0,0-.21-21,7,7,0,0,1-.53-2.94q0-33.2,0-66.39Z"/><path class="cls-1" d="M119.64,111.55a25.63,25.63,0,0,0,12.7,6.94c-1.86,3.19-3.62,6.21-5.51,9.43-4.31-2.32-8.53-4.59-12.85-6.93Z"/><path class="cls-1" d="M154.75,111.51l5.68,9.47-12.84,7-5.51-9.4A25.62,25.62,0,0,0,154.75,111.51Z"/><path class="cls-1" d="M18.32,18.32v79h94.42c-.62-10.6,3.31-19,12.52-24.18s18.36-4.06,27.05,1.9V18.32Z"/><path class="cls-1" d="M137.37,76.22a18.25,18.25,0,1,0,18.09,18.44C155.48,84.79,147.14,76.28,137.37,76.22Zm-.16,28.94a10.69,10.69,0,1,1,10.68-10.64A10.63,10.63,0,0,1,137.21,105.16Z"/><rect class="cls-2" x="31.51" y="29.8" width="108.2" height="6.21"/><rect class="cls-2" x="31.51" y="42.27" width="108.2" height="6.21"/><rect class="cls-2" x="31.51" y="55.32" width="108.2" height="6.21"/><polyline class="cls-2" points="69.75 87.56 69.75 82.83 31.15 82.83 31.15 87.56"/></g></g></svg>