<svg xmlns="http://www.w3.org/2000/svg" viewBox="0 0 141.93 140.3"><defs><style>.cls-1{fill:#5f5e63;}</style></defs><title>Asset 20</title><g id="Layer_2" data-name="Layer 2"><g id="Слой_1" data-name="Слой 1"><g id="Layer_8" data-name="Layer 8"><path class="cls-1" d="M138.58,0H3.35C1.5,0,0,1.84,0,4.11V118.39c0,2.27,1.5,4.11,3.35,4.11H54.2v9.85a2.71,2.71,0,0,0,0,.41h-7.3c-1.69,0-3.07,1.69-3.07,3.77s1.38,3.77,3.07,3.77H96.67c1.7,0,3.07-1.69,3.07-3.77s-1.37-3.77-3.07-3.77h-7.3c0-.13,0-.27,0-.41V122.5h49.17c1.85,0,3.35-1.84,3.35-4.11V4.11C141.93,1.84,140.43,0,138.58,0Zm-6.15,100.48c0,2.27-1.51,4.11-3.35,4.11H12.85c-1.85,0-3.35-1.84-3.35-4.11V13.82c0-2.26,1.5-4.1,3.35-4.1H129.08c1.84,0,3.35,1.84,3.35,4.1Z"/></g></g></g></svg>