<svg xmlns="http://www.w3.org/2000/svg" viewBox="0 0 104.46 154.52"><defs><style>.cls-1{fill:#5f5e63;}</style></defs><title>Asset 18</title><g id="Layer_2" data-name="Layer 2"><g id="Слой_1" data-name="Слой 1"><path class="cls-1" d="M93.79,120.43H10.66V10.67H93.79V120.43ZM51.36,150a13,13,0,1,1,13-13,13,13,0,0,1-13,13ZM95.93,0H8.52A8.53,8.53,0,0,0,0,8.53V146a8.52,8.52,0,0,0,8.52,8.53H95.93a8.52,8.52,0,0,0,8.53-8.53V8.53A8.53,8.53,0,0,0,95.93,0Z"/><path class="cls-1" d="M54.36,131v2.85a5.1,5.1,0,1,1-6.57.48v-3.06a7.61,7.61,0,1,0,6.57-.27Z"/><polygon class="cls-1" points="74.58 37.49 87.83 37.49 87.83 98.62 74.58 98.62 74.58 37.49 74.58 37.49"/><polygon class="cls-1" points="56.25 55.23 69.49 55.23 69.49 98.62 56.25 98.62 56.25 55.23 56.25 55.23"/><polygon class="cls-1" points="37.85 68.06 51.1 68.06 51.1 98.62 37.85 98.62 37.85 68.06 37.85 68.06"/><polygon class="cls-1" points="19.53 83.34 32.77 83.34 32.77 98.62 19.53 98.62 19.53 83.34 19.53 83.34"/><polygon class="cls-1" points="52.38 129.13 49.82 129.13 49.82 139.59 52.38 139.59 52.38 129.13 52.38 129.13"/></g></g></svg>