<svg xmlns="http://www.w3.org/2000/svg" viewBox="0 0 145.05 200.97"><defs><style>.cls-1{fill:#5f5e63;}</style></defs><title>Asset 10</title><g id="Layer_2" data-name="Layer 2"><g id="Слой_1" data-name="Слой 1"><path class="cls-1" d="M26.08,167.11H119V156.23H26.08v10.88Zm0-29.45H119V126.77H26.08v10.89Zm0-29.46H119V97.32H26.08V108.2Zm0-29.43H119V67.87H26.08v10.9Zm102.6,98.4a7.17,7.17,0,0,1-7.16,7.13h-98a7.14,7.14,0,0,1-7.11-7.13v-126A7.14,7.14,0,0,1,23.49,44h98a7.17,7.17,0,0,1,7.16,7.14v126Zm9.23-161.72h-8v7.14a11.86,11.86,0,0,1-23.25,3.33,11.81,11.81,0,0,1-22.72,0,11.83,11.83,0,0,1-22.75,0,11.81,11.81,0,0,1-22.72,0,11.85,11.85,0,0,1-23.23-3.33V15.45H7.12A7.15,7.15,0,0,0,0,22.59V193.83A7.17,7.17,0,0,0,7.12,201H137.91a7.18,7.18,0,0,0,7.14-7.14V22.59a7.16,7.16,0,0,0-7.14-7.14ZM118,29.71a7.16,7.16,0,0,0,7.16-7.12V7.14a7.15,7.15,0,0,0-14.3,0V22.59A7.15,7.15,0,0,0,118,29.71Zm-90.89,0a7.15,7.15,0,0,0,7.14-7.12V7.14a7.13,7.13,0,1,0-14.26,0V22.59a7.15,7.15,0,0,0,7.12,7.12Zm68.17,0a7.13,7.13,0,0,0,7.14-7.12V7.14a7.14,7.14,0,0,0-14.28,0V22.59a7.15,7.15,0,0,0,7.14,7.12Zm-22.7,0a7.15,7.15,0,0,0,7.14-7.12V7.14a7.15,7.15,0,0,0-14.3,0V22.59a7.16,7.16,0,0,0,7.16,7.12Zm-22.73,0A7.16,7.16,0,0,0,57,22.59V7.14a7.15,7.15,0,0,0-14.29,0V22.59a7.15,7.15,0,0,0,7.14,7.12Z"/></g></g></svg>