<svg xmlns="http://www.w3.org/2000/svg" viewBox="0 0 110.49 159.83"><defs><style>.cls-1{fill:#5f5e63;fill-rule:evenodd;}</style></defs><title>Asset 21</title><g id="Layer_2" data-name="Layer 2"><g id="Слой_1" data-name="Слой 1"><path class="cls-1" d="M63,150.88l-3.82-3.83-4.1,12.78L50.2,147.05l-3.33,6.65-4.85-12H68.36L63,150.88Zm-41.5-2.36S0,133.68,0,101.73c0-18.68,18.91-23,18.91-23a196.34,196.34,0,0,0,10.5,49.36c-9.47,11.25-7.94,20.46-7.94,20.46ZM52.66,16V0h4.6V15.62c5.22,3.8,19.4,15.93,25.79,39.27H27.37C33.56,32.19,47,20.2,52.66,16ZM55.2,68.57A11.77,11.77,0,1,0,67,80.34,11.75,11.75,0,0,0,55.2,68.57ZM36.83,137.31S24.14,96.62,24.15,79.75a96,96,0,0,1,2.18-20.49H84.08a94.15,94.15,0,0,1,2.2,20.49c0,16.63-12.63,57.56-12.63,57.56ZM89,148.53s1.53-9.21-7.93-20.46A196.43,196.43,0,0,0,91.55,78.71s18.92,4.34,18.94,23c0,32-21.49,46.8-21.49,46.8Z"/></g></g></svg>