<svg xmlns="http://www.w3.org/2000/svg" viewBox="0 0 138.05 154.82"><defs><style>.cls-1{fill:#5f5e63;}</style></defs><title>Asset 22</title><g id="Layer_2" data-name="Layer 2"><g id="Слой_1" data-name="Слой 1"><path class="cls-1" d="M21.13,56.07A9.44,9.44,0,1,1,26,68.36a9.36,9.36,0,0,1-4.88-12.29Zm3.08,16.39A13.76,13.76,0,1,0,17,54.25a13.88,13.88,0,0,0,7.17,18.21Z"/><path class="cls-1" d="M27.83,64.26a4.81,4.81,0,1,0-2.6-6.4,4.87,4.87,0,0,0,2.6,6.4Z"/><path class="cls-1" d="M99,63.17A12.07,12.07,0,1,1,111.31,51.1,12.19,12.19,0,0,1,99,63.17Zm0-29.94A17.88,17.88,0,1,0,117.13,51.1,18,18,0,0,0,99,33.23Z"/><path class="cls-1" d="M99,44.83a6.26,6.26,0,1,0,6.46,6.27A6.37,6.37,0,0,0,99,44.83Z"/><path class="cls-1" d="M13.11,52.47a18.37,18.37,0,1,1,9.44,24.11,18.31,18.31,0,0,1-9.44-24.11ZM3.87,75.71,8.39,74a25.62,25.62,0,0,0,4.31,5H47.27a24.35,24.35,0,0,0,3.48-3.82L55,77l4.31-9.78-4.15-1.84a25.67,25.67,0,0,0,.21-9.64L59.82,54,56,44.08l-4.53,1.75a25.88,25.88,0,0,0-6.72-6.93l1.63-3.69L36.55,30.9l-1.67,3.8a25.77,25.77,0,0,0-9.22-.16l-1.84-4.75-10,3.85,1.84,4.75A25.26,25.26,0,0,0,8.84,45L4.41,43,.1,52.8l4.5,2A25.54,25.54,0,0,0,4.47,64L0,65.76l3.87,9.95Z"/><path class="cls-1" d="M99.24,74.76a23.7,23.7,0,1,1,23.9-23.71,23.82,23.82,0,0,1-23.9,23.71Zm32.91-30.39a33,33,0,0,0-4.83-11.58l4.42-4.4-9.83-9.81L117.45,23a33.27,33.27,0,0,0-11.65-4.7V13.07H91.91v5.4a34,34,0,0,0-11,4.65l-4.68-4.68-9.82,9.82L71.05,33a32.91,32.91,0,0,0-4.71,11.42H60V58.26h6.41a33,33,0,0,0,4.7,11.07l-4.39,4.4L72,79h54l5.37-5.37-4.13-4.11A32.76,32.76,0,0,0,132,58.26h6V44.37Z"/><path class="cls-1" d="M64,139.07A10.37,10.37,0,1,1,74.34,128.7,10.36,10.36,0,0,1,64,139.07ZM1.85,100.76h10.2v0h91.59v5.15H12.05V145.1a9.72,9.72,0,0,0,9.71,9.72h89.95a9.72,9.72,0,0,0,9.72-9.72V100.76H131.6v-19H1.85v19Z"/><path class="cls-1" d="M43,12.72a10.3,10.3,0,1,1,5.3,13.5A10.28,10.28,0,0,1,43,12.72Zm-5.19,13,2.54-1a14.63,14.63,0,0,0,3.5,3.7l-1,2.16,5.48,2.43L49.32,31a14.36,14.36,0,0,0,5.34.18l.92,2.41,5.59-2.17L60.26,29a14.17,14.17,0,0,0,3.85-3.6l2.38,1L68.92,21l-2.33-1a14.5,14.5,0,0,0,.11-5.41l2.51-1L67,8,64.5,9a14.59,14.59,0,0,0-3.78-3.9L61.64,3,56.16.61l-.94,2.14a14.51,14.51,0,0,0-5.17-.09L49,0,43.43,2.15l1,2.67a14.35,14.35,0,0,0-3.85,3.69l-2.48-1.1L35.72,12.9,38.24,14a14,14,0,0,0-.08,5.19l-2.5,1,2.16,5.58Z"/><path class="cls-1" d="M47.51,14.72a5.29,5.29,0,1,1,2.74,6.91,5.26,5.26,0,0,1-2.74-6.91Zm1.73,9.2a7.71,7.71,0,1,0-4-10.21,7.75,7.75,0,0,0,4,10.21Z"/><path class="cls-1" d="M51.27,19.33A2.73,2.73,0,0,0,54.89,18a2.79,2.79,0,1,0-3.62,1.34Z"/><path class="cls-1" d="M21.13,56.07A9.44,9.44,0,1,1,26,68.36a9.36,9.36,0,0,1-4.88-12.29Zm3.08,16.39A13.76,13.76,0,1,0,17,54.25a13.88,13.88,0,0,0,7.17,18.21Z"/><path class="cls-1" d="M27.83,64.26a4.81,4.81,0,1,0-2.6-6.4,4.87,4.87,0,0,0,2.6,6.4Z"/><path class="cls-1" d="M99,63.17A12.07,12.07,0,1,1,111.31,51.1,12.19,12.19,0,0,1,99,63.17Zm0-29.94A17.88,17.88,0,1,0,117.13,51.1,18,18,0,0,0,99,33.23Z"/><path class="cls-1" d="M99,44.83a6.26,6.26,0,1,0,6.46,6.27A6.37,6.37,0,0,0,99,44.83Z"/><path class="cls-1" d="M13.11,52.47a18.37,18.37,0,1,1,9.44,24.11,18.31,18.31,0,0,1-9.44-24.11ZM3.87,75.71,8.39,74a25.62,25.62,0,0,0,4.31,5H47.27a24.35,24.35,0,0,0,3.48-3.82L55,77l4.31-9.78-4.15-1.84a25.67,25.67,0,0,0,.21-9.64L59.82,54,56,44.08l-4.53,1.75a25.88,25.88,0,0,0-6.72-6.93l1.63-3.69L36.55,30.9l-1.67,3.8a25.77,25.77,0,0,0-9.22-.16l-1.84-4.75-10,3.85,1.84,4.75A25.26,25.26,0,0,0,8.84,45L4.41,43,.1,52.8l4.5,2A25.54,25.54,0,0,0,4.47,64L0,65.76l3.87,9.95Z"/><path class="cls-1" d="M99.24,74.76a23.7,23.7,0,1,1,23.9-23.71,23.82,23.82,0,0,1-23.9,23.71Zm32.91-30.39a33,33,0,0,0-4.83-11.58l4.42-4.4-9.83-9.81L117.45,23a33.27,33.27,0,0,0-11.65-4.7V13.07H91.91v5.4a34,34,0,0,0-11,4.65l-4.68-4.68-9.82,9.82L71.05,33a32.91,32.91,0,0,0-4.71,11.42H60V58.26h6.41a33,33,0,0,0,4.7,11.07l-4.39,4.4L72,79h54l5.37-5.37-4.13-4.11A32.76,32.76,0,0,0,132,58.26h6V44.37Z"/><path class="cls-1" d="M64,139.07A10.37,10.37,0,1,1,74.34,128.7,10.36,10.36,0,0,1,64,139.07ZM1.85,100.76h10.2v0h91.59v5.15H12.05V145.1a9.72,9.72,0,0,0,9.71,9.72h89.95a9.72,9.72,0,0,0,9.72-9.72V100.76H131.6v-19H1.85v19Z"/><path class="cls-1" d="M43,12.72a10.3,10.3,0,1,1,5.3,13.5A10.28,10.28,0,0,1,43,12.72Zm-5.19,13,2.54-1a14.63,14.63,0,0,0,3.5,3.7l-1,2.16,5.48,2.43L49.32,31a14.36,14.36,0,0,0,5.34.18l.92,2.41,5.59-2.17L60.26,29a14.17,14.17,0,0,0,3.85-3.6l2.38,1L68.92,21l-2.33-1a14.5,14.5,0,0,0,.11-5.41l2.51-1L67,8,64.5,9a14.59,14.59,0,0,0-3.78-3.9L61.64,3,56.16.61l-.94,2.14a14.51,14.51,0,0,0-5.17-.09L49,0,43.43,2.15l1,2.67a14.35,14.35,0,0,0-3.85,3.69l-2.48-1.1L35.72,12.9,38.24,14a14,14,0,0,0-.08,5.19l-2.5,1,2.16,5.58Z"/><path class="cls-1" d="M47.51,14.72a5.29,5.29,0,1,1,2.74,6.91,5.26,5.26,0,0,1-2.74-6.91Zm1.73,9.2a7.71,7.71,0,1,0-4-10.21,7.75,7.75,0,0,0,4,10.21Z"/><path class="cls-1" d="M51.27,19.33A2.73,2.73,0,0,0,54.89,18a2.79,2.79,0,1,0-3.62,1.34Z"/></g></g></svg>