<svg id="Layer_2" data-name="Layer 2" xmlns="http://www.w3.org/2000/svg" width="131.403" height="110" viewBox="0 0 131.403 110">
  <g id="Layer_1" data-name="Layer 1" transform="translate(0)">
    <path id="Path_14" data-name="Path 14" d="M125.858,0H33.8a8.979,8.979,0,0,0,0,17.95h92.058a8.979,8.979,0,0,0,0-17.95Z" transform="translate(-3.154)" fill="#fff"/>
    <path id="Path_15" data-name="Path 15" d="M125.858,35.9H33.8a8.979,8.979,0,0,0,0,17.95h92.058a8.979,8.979,0,0,0,0-17.95Z" transform="translate(-3.154 -4.511)" fill="#fff"/>
    <path id="Path_16" data-name="Path 16" d="M125.858,70.22H33.8a8.979,8.979,0,0,0,0,17.95h92.058a8.979,8.979,0,0,0,0-17.95Z" transform="translate(-3.154 -8.824)" fill="#fff"/>
    <path id="Path_17" data-name="Path 17" d="M125.858,105.28H33.8a8.979,8.979,0,0,0,0,17.95h92.058a8.979,8.979,0,0,0,0-17.95Z" transform="translate(-3.154 -13.23)" fill="#fff"/>
    <path id="Path_18" data-name="Path 18" d="M8.971,17.941A8.971,8.971,0,1,0,0,8.971,8.971,8.971,0,0,0,8.971,17.941Z" transform="translate(0)" fill="#fff"/>
    <path id="Path_19" data-name="Path 19" d="M8.971,53.849A8.979,8.979,0,1,0,0,44.869a8.979,8.979,0,0,0,8.971,8.979Z" transform="translate(0 -4.51)" fill="#fff"/>
    <path id="Path_20" data-name="Path 20" d="M8.971,88.169A8.979,8.979,0,1,0,0,79.2a8.979,8.979,0,0,0,8.971,8.971Z" transform="translate(0 -8.823)" fill="#fff"/>
    <path id="Path_21" data-name="Path 21" d="M8.971,123.229A8.979,8.979,0,1,0,0,114.249a8.979,8.979,0,0,0,8.971,8.979Z" transform="translate(0 -13.229)" fill="#fff"/>
  </g>
</svg>
