<svg id="Layer_2" data-name="Layer 2" xmlns="http://www.w3.org/2000/svg" width="151.711" height="150" viewBox="0 0 151.711 150">
  <g id="Layer_1" data-name="Layer 1">
    <g id="Layer_8" data-name="Layer 8">
      <path id="Path_26" data-name="Path 26" d="M148.152,0H3.588C1.6,0,0,1.966,0,4.394V126.583c0,2.428,1.6,4.385,3.588,4.385H57.943v10.981H50.187c-1.809,0-3.284,1.8-3.284,4.021S48.378,150,50.187,150h53.166c1.819,0,3.284-1.809,3.284-4.031s-1.465-4.021-3.284-4.021h-7.8V130.967h52.566c1.966,0,3.588-1.966,3.588-4.385V4.394C151.74,1.966,150.138,0,148.152,0Zm-6.587,107.432c0,2.418-1.612,4.385-3.588,4.385H13.763c-1.966,0-3.578-1.966-3.578-4.385V14.746c0-2.418,1.6-4.385,3.578-4.385H138.026c1.966,0,3.588,1.966,3.588,4.385Z" fill="#fff"/>
    </g>
  </g>
</svg>
