<?xml version="1.0" standalone="no"?>
<!DOCTYPE svg PUBLIC "-//W3C//DTD SVG 20010904//EN"
 "http://www.w3.org/TR/2001/REC-SVG-20010904/DTD/svg10.dtd">
<svg version="1.0" xmlns="http://www.w3.org/2000/svg"
 width="260.000000pt" height="260.000000pt" viewBox="0 0 260.000000 260.000000"
 preserveAspectRatio="xMidYMid meet">
<metadata>
Created by potrace 1.11, written by Peter Selinger 2001-2013
</metadata>
<g transform="translate(0.000000,260.000000) scale(0.100000,-0.100000)"
fill="#000000" stroke="none">
<path d="M1220 2044 c0 -9 8 -29 17 -45 23 -39 11 -46 -39 -23 -80 36 -233 24
-488 -36 -248 -59 -412 -72 -569 -46 -57 10 -106 15 -109 11 -20 -20 181 -122
258 -130 30 -4 134 0 230 8 337 28 543 -21 739 -176 l63 -50 49 55 c64 73 95
86 151 63 24 -9 53 -25 64 -36 30 -28 64 -17 113 36 68 73 93 119 89 161 -3
39 -18 53 -98 84 -19 7 -63 34 -98 58 l-63 44 -127 10 c-70 5 -131 14 -136 19
-16 15 -46 10 -46 -7z"/>
<path d="M461 1731 c-54 -10 -48 -27 16 -47 158 -48 321 -142 433 -248 69 -66
123 -105 205 -148 191 -100 515 -139 650 -78 18 8 260 87 340 111 130 38 296
60 399 51 72 -6 73 10 3 37 -127 47 -276 48 -540 5 -252 -41 -449 -29 -609 37
-36 15 -115 61 -175 101 -145 100 -239 142 -386 173 -68 15 -269 18 -336 6z"/>
<path d="M2488 969 c-10 -6 -18 -21 -18 -35 0 -13 -4 -32 -9 -42 -16 -32 -51
-112 -51 -117 0 -3 9 -5 19 -5 14 0 21 8 23 28 3 24 7 27 38 27 28 0 35 -4 40
-25 4 -19 13 -26 38 -28 18 -2 32 1 32 7 0 6 -4 11 -8 11 -5 0 -21 37 -37 83
-32 96 -43 110 -67 96z m20 -97 c3 -19 -1 -23 -15 -20 -10 2 -19 14 -21 26 -3
19 1 23 15 20 10 -2 19 -14 21 -26z"/>
<path d="M27 963 c-3 -4 -7 -48 -8 -97 l-3 -89 27 -3 c15 -1 27 0 28 4 0 4 1
48 2 97 2 85 0 90 -20 93 -11 2 -23 -1 -26 -5z"/>
<path d="M115 960 c-3 -6 1 -13 10 -16 19 -8 30 0 20 15 -8 14 -22 14 -30 1z"/>
<path d="M360 870 c0 -100 0 -101 23 -94 12 3 23 7 24 8 2 2 4 106 2 131 -1
11 0 27 2 35 3 10 -5 16 -23 18 l-28 3 0 -101z"/>
<path d="M452 963 c-10 -4 -7 -9 8 -20 24 -17 35 -12 27 12 -7 16 -13 17 -35
8z"/>
<path d="M710 968 c0 -2 -2 -47 -3 -101 l-2 -97 33 0 c17 0 32 1 32 3 0 1 -4
17 -9 34 -7 22 -6 35 1 39 16 10 50 -35 43 -57 -6 -16 -1 -19 34 -19 44 0 51
9 25 31 -28 23 -37 60 -19 80 25 27 16 71 -18 82 -36 12 -45 2 -22 -24 23 -24
11 -52 -24 -57 -21 -3 -23 0 -19 40 3 40 1 43 -24 46 -16 2 -28 2 -28 0z"/>
<path d="M1080 968 c-1 -2 -2 -47 -3 -101 l-2 -97 28 0 c25 0 27 3 27 40 0 22
4 40 10 40 13 0 30 -34 30 -59 0 -18 6 -21 40 -21 22 0 40 3 40 6 0 3 -11 19
-25 36 -29 34 -31 50 -10 68 35 29 -7 103 -50 86 -13 -5 -13 -8 4 -25 26 -26
17 -61 -16 -61 -23 0 -24 3 -21 43 3 39 1 42 -24 45 -16 2 -28 2 -28 0z"/>
<path d="M1463 955 c-29 -20 -45 -78 -32 -113 33 -89 135 -98 178 -15 34 65
-13 143 -86 143 -21 0 -48 -7 -60 -15z m89 -22 c13 -11 18 -30 18 -64 0 -53
-18 -79 -55 -79 -20 0 -26 7 -35 40 -23 85 21 149 72 103z"/>
<path d="M1826 954 c-32 -32 -17 -65 47 -104 24 -14 37 -28 35 -39 -4 -23 -46
-26 -69 -5 -25 23 -37 10 -14 -16 25 -28 76 -26 104 4 34 36 24 66 -31 101
-39 25 -46 34 -41 53 6 26 -9 29 -31 6z"/>
<path d="M1895 950 c10 -11 22 -20 27 -20 15 0 9 28 -8 34 -30 11 -37 6 -19
-14z"/>
<path d="M2159 968 c0 -2 -1 -47 -2 -101 l-2 -97 30 0 30 0 -2 97 c-2 97 -2
98 -27 101 -14 2 -26 2 -27 0z"/>
<path d="M106 891 c-4 -5 -2 -12 3 -15 5 -4 12 -2 15 3 4 5 2 12 -3 15 -5 4
-12 2 -15 -3z"/>
<path d="M445 880 c4 -6 11 -8 16 -5 14 9 11 15 -7 15 -8 0 -12 -5 -9 -10z"/>
<path d="M471 797 c-6 -8 -8 -17 -4 -20 7 -8 33 11 33 24 0 13 -16 11 -29 -4z"/>
</g>
</svg>
