<svg xmlns="http://www.w3.org/2000/svg" width="120.988" height="60" viewBox="0 0 120.988 60">
  <g id="logo" transform="translate(320.4 -0.4)">
    <g id="Group_11" data-name="Group 11" transform="translate(-320.4 0.4)">
      <g id="Group_9" data-name="Group 9" transform="translate(0 50.206)">
        <g id="Group_1" data-name="Group 1" transform="translate(0 0.494)">
          <path id="Path_1" data-name="Path 1" d="M8.007,64.222H7.6a3.692,3.692,0,0,0-.823-1.07,2.094,2.094,0,0,0-1.317-.412H4.551c-.412,0-.576.082-.658.247a1.044,1.044,0,0,0-.082.494v2.3h.905a3.159,3.159,0,0,0,1.317-.165.453.453,0,0,0,.247-.412v-.494h.412v2.551H6.361v-.082h0v-.329c-.082-.082-.165-.247-.247-.329a1.771,1.771,0,0,0-.823-.165H3.728V69.49c0,.329.082.576.247.576a1.6,1.6,0,0,0,.658.082H4.8v.658H.6v-.658H.847a.959.959,0,0,0,.576-.165.787.787,0,0,0,.165-.576v-6.42a.959.959,0,0,0-.165-.576.959.959,0,0,0-.576-.165H.6V62h7Z" transform="translate(-0.6 -62)" fill="#d40114"/>
        </g>
        <g id="Group_2" data-name="Group 2" transform="translate(15.802 0.494)">
          <path id="Path_2" data-name="Path 2" d="M27.043,64.222h-.412c0-.082-.082-.165-.082-.247-.082-.082-.082-.165-.165-.247a4.967,4.967,0,0,0-.658-.658,2.39,2.39,0,0,0-1.152-.247h-.988a.959.959,0,0,0-.576.165.787.787,0,0,0-.165.576v2.3h.905a3.159,3.159,0,0,0,1.317-.165.822.822,0,0,0,.329-.412h0v-.412h.412v2.551H25.4v-.494c-.082-.082-.165-.247-.247-.329a1.771,1.771,0,0,0-.823-.165h-1.4V69.49a.7.7,0,0,0,.165.494.959.959,0,0,0,.576.165h1.152a2.045,2.045,0,0,0,.658-.082,2.137,2.137,0,0,0,.823-.329,2.182,2.182,0,0,0,.494-.412,4.565,4.565,0,0,0,.494-.658H27.7l-.494,2.222H19.8V70.23h.247a.787.787,0,0,0,.576-.165.624.624,0,0,0,.165-.329v-.165h0v-6.42h0a.617.617,0,0,0-.082-.412c-.082-.165-.247-.165-.658-.165H19.8V62h7Z" transform="translate(-19.8 -62)" fill="#d40114"/>
        </g>
        <g id="Group_3" data-name="Group 3" transform="translate(32.099 0.494)">
          <path id="Path_3" data-name="Path 3" d="M42.81,69.737v.329c0,.082.082.165.165.247a.484.484,0,0,0,.412.165h.247v.658H39.6v-.658h.329a.787.787,0,0,0,.576-.165.624.624,0,0,0,.165-.329v-.165h0V63.4h0v-.165a.428.428,0,0,0-.165-.329.959.959,0,0,0-.576-.165h-.247V62H43.8a7.527,7.527,0,0,1,2.881.494,1.911,1.911,0,0,1,1.152,2.058,1.936,1.936,0,0,1-.494,1.4,2.13,2.13,0,0,1-1.4.741l-.082.165.905,1.728a1.8,1.8,0,0,0,.247.412c.082.165.165.247.247.412a2.563,2.563,0,0,0,.576.741,1.93,1.93,0,0,0,.823.412v.658H44.785V70.56h.082a.291.291,0,0,0,.329-.329v-.165c0-.082,0-.082-.082-.165v-.165c0-.082,0-.082-.082-.082a.081.081,0,0,0-.082-.082L43.8,67.35H42.81Zm0-3.374h1.152a.742.742,0,0,0,.412-.082,1.632,1.632,0,0,0,1.235-1.728v-.329a1.17,1.17,0,0,0-.165-.494c-.082-.247-.329-.412-.576-.658a2.221,2.221,0,0,0-1.235-.329c-.412,0-.576.082-.658.165a.7.7,0,0,0-.165.494Z" transform="translate(-39.6 -62)" fill="#d40114"/>
        </g>
        <g id="Group_4" data-name="Group 4" transform="translate(49.218 0.494)">
          <path id="Path_4" data-name="Path 4" d="M63.61,69.737v.329c0,.082.082.165.165.247a.484.484,0,0,0,.412.165h.247v.658H60.4v-.658h.247a.787.787,0,0,0,.576-.165.624.624,0,0,0,.165-.329v-.165h0V63.4h0v-.165a.428.428,0,0,0-.165-.329.959.959,0,0,0-.576-.165H60.4V62h4.115a7.527,7.527,0,0,1,2.881.494,1.911,1.911,0,0,1,1.152,2.058,1.936,1.936,0,0,1-.494,1.4,2.13,2.13,0,0,1-1.4.741l-.082.165.905,1.728a1.8,1.8,0,0,0,.247.412c.082.165.165.247.247.412a2.563,2.563,0,0,0,.576.741,1.93,1.93,0,0,0,.823.412v.658H65.5V70.56h.165A.291.291,0,0,0,66,70.23v-.165c0-.082,0-.082-.082-.165v-.165c0-.082,0-.082-.082-.082a.081.081,0,0,0-.082-.082L64.6,67.35H63.61v2.387Zm0-3.374h1.152a.742.742,0,0,0,.412-.082,1.632,1.632,0,0,0,1.235-1.728v-.329a1.17,1.17,0,0,0-.165-.494c-.082-.247-.329-.412-.576-.658a2.221,2.221,0,0,0-1.235-.329c-.412,0-.576.082-.658.165a.7.7,0,0,0-.165.494v2.963Z" transform="translate(-60.4 -62)" fill="#d40114"/>
        </g>
        <g id="Group_5" data-name="Group 5" transform="translate(66.337 0.247)">
          <path id="Path_5" data-name="Path 5" d="M85.727,71.247A4.506,4.506,0,0,1,81.2,66.474a4.673,4.673,0,0,1,1.235-3.457A4.6,4.6,0,0,1,85.727,61.7a5.113,5.113,0,0,1,3.21,1.152,5.176,5.176,0,0,1,0,7.078,4.349,4.349,0,0,1-3.21,1.317Zm.494-.823a1.17,1.17,0,0,0,.494-.165,2.4,2.4,0,0,0,.905-1.07,6.719,6.719,0,0,0,.412-2.634,5.169,5.169,0,0,0-.576-2.963,1.945,1.945,0,0,0-1.317-.905h-.412a2,2,0,0,0-1.646.905,5.563,5.563,0,0,0-.658,3.045,6.719,6.719,0,0,0,.412,2.634,2.018,2.018,0,0,0,.905,1.07,1.19,1.19,0,0,0,.576.165h.412A1.044,1.044,0,0,1,86.221,70.424Z" transform="translate(-81.2 -61.7)" fill="#d40114"/>
        </g>
        <g id="Group_6" data-name="Group 6" transform="translate(84.115 0.329)">
          <path id="Path_6" data-name="Path 6" d="M108.232,64.187a2.956,2.956,0,0,0-.576-.823,1.943,1.943,0,0,0-.741-.494c-.165-.082-.412-.165-.576-.247-.165,0-.329-.082-.494-.082a1.006,1.006,0,0,0-.741.247,1.327,1.327,0,0,0-.329.576v.165a.935.935,0,0,0,.247.658,1.476,1.476,0,0,0,.576.412c.082,0,.082.082.165.082s.082.082.165.082c.658.329,1.235.658,1.646.905a6.969,6.969,0,0,1,1.152.823,3.15,3.15,0,0,1,.658.905,2.192,2.192,0,0,1,.247.988,2.232,2.232,0,0,1-1.07,1.975,4.1,4.1,0,0,1-2.387.741,8.208,8.208,0,0,1-1.317-.165,9.481,9.481,0,0,1-1.728-.494l-.247-1.893h.412a3.223,3.223,0,0,0,.658.823,4.523,4.523,0,0,0,.741.576,3.44,3.44,0,0,0,.823.329,2.045,2.045,0,0,0,.658.082,1.4,1.4,0,0,0,1.07-.329,1.057,1.057,0,0,0,.329-.823,1.19,1.19,0,0,0-.165-.576l-.494-.494a4.594,4.594,0,0,0-.658-.412,7.647,7.647,0,0,0-.823-.412c-.082-.082-.247-.082-.329-.165s-.165-.082-.329-.165a4.824,4.824,0,0,1-1.4-1.07,2.416,2.416,0,0,1-.576-1.564,2.553,2.553,0,0,1,.741-1.811,3.232,3.232,0,0,1,2.3-.741h.576c.247,0,.412.082.658.082l.741.247a1.654,1.654,0,0,1,.658.329l.165,1.728h-.412Z" transform="translate(-102.8 -61.8)" fill="#d40114"/>
        </g>
        <g id="Group_7" data-name="Group 7" transform="translate(99.588 0.494)">
          <path id="Path_7" data-name="Path 7" d="M121.847,70.477a.787.787,0,0,0,.576-.165.624.624,0,0,0,.165-.329v-.165h0V63.4h0v-.165a.428.428,0,0,0-.165-.329.959.959,0,0,0-.576-.165H121.6V62h4.2v.658h-.247a1.064,1.064,0,0,0-.658.165,1.044,1.044,0,0,0-.082.494v6.42a1.044,1.044,0,0,0,.082.494c.082.165.329.165.658.165h.247v.658h-4.2V70.4h.247Z" transform="translate(-121.6 -62)" fill="#d40114"/>
        </g>
        <g id="Group_8" data-name="Group 8" transform="translate(111.687)">
          <path id="Path_8" data-name="Path 8" d="M144.366,68.972c0,.082.082.165.082.247.082.082.082.247.165.412.082.082.082.165.165.247s.082.165.165.247l.082.082.082.082a.3.3,0,0,0,.247.082h.247v.658h-3.457v-.658h.494l.082-.082h0v-.082a.255.255,0,0,0-.082-.165l-.576-1.646h-3.21l-.494,1.4v.165h0c0,.082,0,.082-.082.165v.082h0a.081.081,0,0,0,.082.082h.658v.658H136.3v-.658a1.643,1.643,0,0,0,.741-.165.643.643,0,0,0,.329-.329v-.082a.081.081,0,0,1,.082-.082c.082-.082.082-.165.165-.247,0-.082.082-.082.082-.165h0v-.165l2.058-5.432c0-.082,0-.082.082-.165,0-.082,0-.082.082-.165v-.329h0v-.082c0-.082-.082-.082-.082-.165-.082-.082-.165-.082-.412-.082h-.082v-.412a1.22,1.22,0,0,0,.576-.082,1.17,1.17,0,0,0,.494-.165c.082-.082.247-.165.329-.247s.247-.165.412-.329h.576Zm-5.021-1.564H141.9l-1.235-3.292H140.5Z" transform="translate(-136.3 -61.4)" fill="#d40114"/>
        </g>
      </g>
      <g id="Group_10" data-name="Group 10" transform="translate(0.329)">
        <path id="Path_9" data-name="Path 9" d="M81,16.943c-1.564,1.975-3.128,3.868-5.844,4.2,0-.247.165-.658,0-.741a24.5,24.5,0,0,0-2.387-1.646c-.658-.329-1.481-.576-2.058-.823h0a4.488,4.488,0,0,0-2.14-.082c-.082.082-.165.082-.247.165v-.165a5.034,5.034,0,0,0-.988.412c-.082.165-.247.247-.329.412-.905.988-1.975,1.893-2.881,2.963A16.207,16.207,0,0,0,62.4,24.268c-.165-.165-.329-.247-.412-.412a33.737,33.737,0,0,0-13.169-8.4,47.324,47.324,0,0,0-13.992-2.634,74.09,74.09,0,0,0-15.391.988,16.75,16.75,0,0,1-8.313-.741A31.075,31.075,0,0,1,2.811,8.63,19.681,19.681,0,0,1,1,7.314c.576,0,.988.165,1.481.165,2.3,0,4.938.741,7.16,1.07,5.35.823,10.37,0,15.226-.741,8.56-1.235,16.049-4.362,24.856-4.444,1.811,0,3.621.165,5.432.247a1.625,1.625,0,0,1,.988.494,2.871,2.871,0,0,0,3.21.741A7.006,7.006,0,0,1,57.3.4,41.3,41.3,0,0,0,68.654,1.8a9.215,9.215,0,0,1,5.679,2.058A19.035,19.035,0,0,0,76.309,5.5,57.278,57.278,0,0,0,82.4,8.219a2.506,2.506,0,0,1,1.893,2.3,4.541,4.541,0,0,1-.412,2.551A47.211,47.211,0,0,1,81,16.943Z" transform="translate(-1 -0.4)" fill="#d40114"/>
        <path id="Path_10" data-name="Path 10" d="M22.3,19.532a.851.851,0,0,1,.329-.082A48.539,48.539,0,0,1,34.563,18.3,42.3,42.3,0,0,1,46.58,20.355a47.32,47.32,0,0,1,15.062,8.313,26.8,26.8,0,0,0,8.4,4.2,41.874,41.874,0,0,0,11.029,1.893,59.7,59.7,0,0,0,12.1-.658c2.634-.412,5.185-1.07,7.819-1.4,2.8-.329,5.679-.494,8.477-.576a32.271,32.271,0,0,1,11.193,1.481,12.049,12.049,0,0,1,4.444,2.551c-1.646-.247-3.21-.494-4.774-.658-5.021-.412-9.959.494-14.815,1.646A74.276,74.276,0,0,0,98.185,39.2c-3.7,1.152-7.325,2.469-11.029,3.7a20.432,20.432,0,0,1-4.856,1.4,56.166,56.166,0,0,1-8.313-.082,41.358,41.358,0,0,1-11.358-2.14A40.883,40.883,0,0,1,46.991,33.03a43.51,43.51,0,0,0-3.374-3.374,58.916,58.916,0,0,0-13.58-7.49C27.732,21.26,24.934,20.437,22.3,19.532Z" transform="translate(-4.769 -3.565)" fill="#d40114"/>
      </g>
    </g>
  </g>
</svg>
